 <svg  version="1.0" xmlns="http://www.w3.org/2000/svg"  width="591.000000pt" height="900.000000pt" viewBox="0 0 591.000000 900.000000"  preserveAspectRatio="xMidYMid meet">  <g transform="translate(0.000000,900.000000) scale(0.100000,-0.100000)" fill="#000000" stroke="none"> <path d="M5094 8791 c-130 -19 -173 -28 -269 -56 -337 -97 -511 -157 -775 -267 -144 -60 -447 -231 -615 -348 -126 -88 -211 -139 -319 -193 -56 -27 -126 -65 -156 -85 -74 -47 -291 -243 -445 -402 -198 -205 -257 -283 -353 -470 -29 -58 -57 -109 -61 -115 -23 -31 -110 -260 -132 -349 -13 -50 -37 -96 -51 -96 -6 0 -33 13 -59 30 -71 43 -116 60 -164 60 -39 0 -48 -5 -104 -62 -35 -35 -92 -108 -127 -163 -171 -261 -217 -336 -256 -410 -51 -96 -138 -285 -138 -299 0 -5 -13 -43 -29 -85 -56 -147 -77 -244 -108 -501 l-8 -65 -50 -8 c-161 -28 -167 -30 -217 -97 -57 -77 -131 -246 -172 -390 -8 -30 -24 -86 -35 -125 -28 -98 -38 -139 -55 -225 -8 -41 -22 -108 -31 -149 -8 -41 -22 -162 -31 -269 -14 -178 -14 -212 1 -391 15 -191 32 -308 60 -421 7 -30 21 -86 30 -125 28 -122 36 -148 71 -236 33 -83 33 -88 20 -130 -24 -74 -56 -162 -75 -204 -38 -83 -101 -234 -101 -243 0 -4 -13 -24 -30 -42 -16 -18 -30 -37 -30 -41 0 -22 -129 -270 -182 -351 -20 -31 -47 -76 -60 -100 -26 -49 -25 -39 -34 -666 l-5 -352 40 0 c40 0 111 24 111 38 0 21 208 219 248 236 23 11 42 23 42 27 0 4 6 14 13 21 7 7 36 51 64 98 28 47 63 96 77 109 14 14 26 32 26 41 0 9 9 43 20 76 15 44 33 72 70 108 51 49 84 102 74 117 -3 5 13 44 35 87 22 42 50 97 61 122 11 25 38 74 60 110 22 36 40 71 40 79 0 36 158 363 207 427 45 58 79 79 248 149 17 7 98 45 181 84 84 39 159 71 169 71 16 0 242 109 313 151 20 12 53 37 72 54 32 30 136 109 190 145 12 8 28 20 34 25 6 6 43 35 82 65 234 179 352 288 510 471 179 208 304 435 304 553 0 41 -27 101 -59 130 -32 29 -26 48 27 79 85 50 268 181 352 253 136 116 212 190 376 365 106 112 224 242 264 289 40 47 83 97 96 112 32 38 186 266 201 298 4 8 25 47 47 85 82 143 148 307 171 425 9 47 61 143 99 185 40 43 66 95 112 225 21 58 53 138 71 179 19 40 50 117 70 170 32 85 55 143 83 206 5 11 25 61 45 110 20 50 40 99 45 110 21 47 109 266 135 335 15 41 36 93 45 115 18 39 116 332 145 430 8 28 28 93 44 145 64 205 91 338 91 452 0 78 -4 107 -19 136 -39 75 -112 122 -223 141 -123 21 -274 22 -414 2z m333 -297 c7 -10 13 -32 13 -48 0 -29 -80 -293 -100 -328 -15 -26 -50 -131 -50 -148 0 -8 -7 -28 -15 -44 -8 -15 -15 -37 -15 -47 0 -18 -18 -66 -46 -122 -8 -16 -14 -36 -14 -45 0 -9 -6 -37 -15 -62 -8 -25 -30 -94 -49 -155 -18 -60 -46 -132 -60 -159 -14 -27 -26 -55 -26 -62 0 -8 -13 -42 -30 -76 -16 -34 -30 -73 -30 -88 0 -14 -7 -35 -15 -46 -8 -10 -15 -28 -15 -39 0 -11 -6 -29 -13 -40 -7 -11 -28 -58 -46 -105 -45 -116 -52 -131 -145 -322 -78 -162 -82 -168 -116 -174 -39 -8 -69 -39 -70 -71 0 -14 -6 -23 -15 -23 -9 0 -19 -10 -24 -23 -5 -13 -16 -29 -25 -36 -9 -7 -16 -19 -16 -25 0 -7 -24 -38 -54 -69 -38 -39 -62 -57 -80 -57 -69 0 -351 -204 -326 -236 14 -16 1 -24 -31 -17 -22 4 -29 2 -29 -10 0 -9 -9 -19 -20 -22 -11 -3 -20 -10 -20 -15 0 -5 -14 -17 -31 -25 -43 -23 -109 -85 -120 -112 -33 -86 139 -124 401 -88 144 20 180 19 180 -2 0 -33 -142 -143 -186 -143 -8 0 -14 -4 -14 -10 0 -12 -66 -42 -96 -44 -20 -1 -96 -59 -155 -116 -14 -14 -44 -38 -67 -53 -24 -16 -42 -36 -42 -46 0 -10 -6 -24 -14 -30 -8 -6 -19 -24 -25 -40 -7 -15 -27 -35 -47 -44 -23 -11 -34 -24 -34 -38 0 -11 -16 -37 -36 -57 -20 -20 -40 -46 -44 -58 -5 -12 -21 -28 -37 -36 -15 -7 -30 -22 -33 -33 -9 -34 -34 -65 -52 -65 -10 0 -18 -6 -18 -13 0 -16 -34 -49 -46 -45 -16 5 -72 -44 -85 -73 -6 -16 -15 -29 -20 -29 -5 0 -9 -18 -9 -39 0 -38 -4 -43 -124 -145 -69 -58 -129 -106 -134 -106 -5 0 -17 -9 -27 -20 -10 -11 -24 -20 -30 -20 -7 0 -49 -25 -94 -55 -44 -30 -104 -67 -132 -82 -29 -15 -59 -33 -68 -38 -79 -50 -77 -49 -157 -122 -22 -21 -57 -51 -76 -67 -28 -22 -36 -35 -36 -59 1 -23 -8 -39 -36 -64 -36 -33 -36 -34 -19 -61 26 -40 42 -50 102 -62 73 -16 224 2 364 42 128 37 146 31 102 -31 -15 -22 -49 -61 -76 -86 -45 -42 -52 -45 -101 -45 -29 0 -100 -5 -158 -11 -130 -14 -207 -6 -256 27 -20 14 -43 23 -50 20 -37 -14 -59 119 -27 156 13 15 13 20 0 47 -9 17 -12 33 -7 36 4 3 10 19 12 37 3 18 8 41 12 50 5 11 1 23 -12 36 -23 23 -19 32 15 32 33 0 29 19 -7 31 -16 6 -27 15 -24 21 3 5 8 42 11 81 3 40 9 73 14 75 5 2 19 12 31 23 23 19 23 19 4 34 -27 21 -32 19 -47 -17 l-13 -32 -11 44 c-7 27 -17 45 -25 45 -19 0 -42 -48 -48 -101 -3 -29 -8 -41 -17 -37 -8 2 -19 -6 -26 -19 -7 -13 -19 -28 -27 -34 -10 -8 -13 -21 -8 -45 17 -96 18 -109 7 -109 -6 0 -11 15 -11 33 l-1 32 -40 -45 c-25 -28 -38 -53 -37 -67 2 -12 -11 -43 -27 -69 -29 -46 -30 -47 -33 -20 -3 26 31 110 49 122 5 3 9 16 9 30 0 14 7 27 15 30 8 4 15 15 15 27 0 11 6 28 13 36 8 9 19 36 26 61 17 58 53 135 102 216 21 35 39 70 39 78 0 7 7 19 15 26 8 7 15 19 15 27 0 14 19 54 145 316 146 302 293 560 520 907 23 36 62 97 88 135 61 94 175 251 270 371 43 54 106 135 139 179 50 65 131 162 193 231 6 6 51 58 100 114 126 146 332 366 521 560 238 244 312 334 330 404 11 47 -19 43 -144 -19 -149 -74 -342 -204 -462 -314 -142 -130 -421 -410 -553 -556 -64 -71 -158 -173 -207 -225 -50 -52 -114 -124 -143 -160 -29 -35 -76 -89 -104 -119 -29 -30 -53 -57 -53 -60 0 -6 -97 -128 -218 -276 -31 -38 -87 -102 -125 -141 -37 -40 -95 -110 -130 -157 -97 -134 -187 -260 -252 -356 -61 -89 -211 -303 -264 -376 -16 -22 -61 -92 -101 -155 -40 -63 -88 -140 -107 -170 -74 -118 -141 -227 -165 -270 -14 -25 -56 -94 -93 -155 -37 -60 -70 -117 -73 -125 -3 -8 -22 -42 -42 -75 -80 -132 -332 -615 -410 -785 -19 -41 -44 -88 -56 -105 -29 -39 -94 -164 -94 -180 0 -7 -8 -23 -19 -36 l-18 -23 -13 25 c-18 33 -38 110 -67 264 -22 119 -25 156 -26 445 -1 324 6 405 50 605 35 162 111 364 148 395 23 19 40 1 59 -63 11 -34 27 -75 35 -92 8 -16 21 -43 29 -60 29 -58 96 -115 137 -115 18 0 50 49 66 100 6 19 14 152 19 295 4 143 13 294 19 335 31 207 46 276 82 400 22 74 46 155 53 180 16 53 172 358 216 420 27 39 136 223 143 243 10 28 46 21 53 -10 6 -25 51 -163 85 -263 34 -97 92 -228 114 -252 69 -80 132 14 156 232 28 261 87 521 181 805 11 35 42 89 73 130 29 39 64 88 77 110 36 62 80 115 111 131 19 10 41 43 74 110 46 95 79 133 138 161 18 8 39 29 49 47 35 65 146 166 182 166 41 0 53 -94 29 -234 -9 -55 -14 -110 -10 -124 9 -35 43 -82 60 -82 11 0 50 51 64 85 2 6 14 26 27 46 12 20 41 80 64 135 23 54 54 122 69 149 39 74 175 277 202 301 60 55 336 236 423 278 53 25 98 46 101 46 2 0 40 16 82 36 180 85 261 115 618 229 194 63 474 106 640 100 62 -3 82 -7 92 -21z m-1202 -2544 c-3 -5 -13 -10 -21 -10 -8 0 -12 5 -9 10 3 6 13 10 21 10 8 0 12 -4 9 -10z m-2135 -1265 c0 -7 -99 -196 -110 -210 -8 -10 -46 -80 -144 -265 -53 -98 -318 -631 -336 -675 -5 -11 -18 -41 -29 -67 -12 -26 -21 -49 -21 -52 0 -2 -29 -65 -65 -140 -36 -75 -89 -195 -119 -269 -29 -73 -74 -173 -98 -222 -25 -50 -53 -115 -63 -145 -10 -30 -21 -59 -25 -65 -3 -5 -15 -32 -25 -60 -10 -27 -37 -88 -60 -135 -23 -47 -54 -116 -70 -155 -15 -38 -48 -115 -74 -170 -27 -55 -58 -127 -71 -160 -32 -83 -68 -167 -80 -185 -6 -8 -35 -67 -66 -130 -30 -63 -59 -123 -65 -132 -5 -10 -9 -23 -9 -29 0 -6 -6 -25 -14 -42 -8 -18 -21 -52 -31 -77 -36 -97 -64 -113 -109 -59 -30 35 -36 101 -12 134 42 61 316 608 316 631 0 2 13 32 29 66 17 35 45 104 64 154 19 50 67 155 105 235 39 79 80 169 91 199 12 30 26 64 31 75 5 11 31 74 59 140 81 197 115 267 304 635 135 263 189 364 242 455 148 252 185 317 185 322 0 3 14 22 30 43 17 21 30 40 30 43 0 3 21 41 48 84 110 181 162 255 162 228z m59 -637 c10 -28 -7 -57 -20 -36 -12 18 -11 58 1 58 6 0 14 -10 19 -22z m-200 -350 c1 -5 -6 -8 -14 -8 -8 0 -15 -6 -15 -13 0 -7 -7 -22 -15 -33 -14 -19 -14 -19 -15 3 0 12 7 28 15 37 8 8 15 21 15 29 0 35 26 21 29 -15z m-1654 -2722 c44 -19 44 -37 3 -90 -48 -61 -172 -196 -180 -196 -11 0 -10 34 1 45 12 13 81 175 81 190 0 16 39 65 51 65 5 0 25 -7 44 -14z"/> <path d="M5240 8009 c-12 -23 -18 -44 -15 -47 7 -7 22 15 42 61 19 43 -4 31 -27 -14z"/> <path d="M3937 6663 c-4 -3 -7 -13 -7 -21 0 -12 3 -12 15 -2 8 7 15 16 15 21 0 11 -14 12 -23 2z"/> <path d="M3887 6592 c-18 -20 -22 -32 -9 -32 10 1 45 50 34 50 -5 0 -16 -8 -25 -18z"/> <path d="M3774 6477 c-118 -132 -130 -165 -19 -52 41 42 75 81 75 86 0 19 -19 7 -56 -34z"/> <path d="M2194 5524 c-4 -10 -9 -22 -11 -26 -2 -5 0 -8 6 -8 11 0 26 39 17 47 -3 3 -9 -3 -12 -13z"/> <path d="M3430 4745 c0 -8 5 -15 10 -15 6 0 10 7 10 15 0 8 -4 15 -10 15 -5 0 -10 -7 -10 -15z"/> <path d="M2250 4380 c0 -19 3 -21 12 -12 9 9 9 15 0 24 -9 9 -12 7 -12 -12z"/> <path d="M2287 4293 c-11 -10 -8 -53 3 -53 13 0 32 38 25 50 -7 12 -19 13 -28 3z"/> <path d="M2320 3911 c-8 -15 -8 -27 0 -42 16 -29 35 -18 35 21 0 39 -19 50 -35 21z"/> <path d="M2337 3834 c-9 -10 -9 -64 1 -64 19 1 33 19 30 40 -3 24 -19 36 -31 24z"/> <path d="M728 3204 c-11 -11 -10 -108 2 -138 12 -32 34 -35 24 -3 -4 12 -10 51 -13 85 -3 35 -9 60 -13 56z"/> </g> </svg> 