<?xml version="1.0" standalone="no"?>
<!DOCTYPE svg PUBLIC "-//W3C//DTD SVG 20010904//EN"
 "http://www.w3.org/TR/2001/REC-SVG-20010904/DTD/svg10.dtd">
<svg version="1.0" xmlns="http://www.w3.org/2000/svg"
 width="75.000000pt" height="50.000000pt" viewBox="0 0 300.000000 205.000000"
 preserveAspectRatio="xMidYMid meet">
<metadata>
Created by potrace 1.10, written by Peter Selinger 2001-2011
</metadata>
<g transform="translate(0.000000,205.000000) scale(0.100000,-0.100000)"
fill="#000000" stroke="none">
<path d="M2095 2005 c-87 -19 -156 -49 -263 -113 -125 -75 -194 -142 -234
-229 -17 -37 -32 -69 -34 -71 -1 -2 -11 1 -22 7 -17 9 -25 6 -48 -22 -37 -44
-92 -161 -100 -213 -5 -34 -11 -44 -25 -44 -26 0 -54 -61 -75 -161 -14 -72
-15 -95 -5 -162 7 -44 17 -89 23 -102 14 -31 -27 -129 -51 -120 -94 36 -448
-18 -491 -75 -10 -13 -32 -24 -58 -27 -41 -5 -44 -9 -121 -125 l-79 -119 -21
29 c-47 66 -49 128 -4 119 13 -2 21 -2 19 1 -3 3 9 12 27 21 17 9 45 35 62 59
29 42 30 48 30 149 0 88 -3 107 -17 116 -25 16 -118 -49 -158 -112 -18 -28
-36 -48 -40 -46 -5 3 3 44 16 92 13 49 24 91 24 95 0 3 11 20 25 37 19 22 40
33 81 41 104 22 174 66 174 111 0 26 -7 24 -46 -11 -19 -16 -60 -37 -92 -46
-31 -8 -65 -18 -76 -21 -21 -6 -18 1 22 54 28 37 95 73 139 73 43 0 83 -37 83
-78 0 -34 14 -43 24 -16 42 108 -94 176 -208 104 -55 -35 -55 -36 37 90 86
118 114 148 202 219 167 134 426 227 685 247 88 6 116 16 104 36 -9 15 -183 8
-282 -11 -308 -60 -548 -204 -722 -436 -92 -123 -163 -270 -197 -410 -14 -60
-27 -116 -29 -122 -2 -8 -13 -4 -30 12 -49 46 -197 74 -210 40 -8 -20 23 -148
47 -201 25 -52 83 -93 144 -102 l47 -7 4 -55 c6 -72 30 -157 49 -168 12 -6 2
-27 -55 -106 -73 -103 -88 -149 -55 -176 8 -7 13 -15 11 -19 -6 -9 184 4 454
33 135 14 300 26 367 27 118 2 123 1 161 -25 53 -37 93 -46 192 -46 90 0 164
23 176 55 5 12 24 15 94 15 100 0 288 -14 474 -35 70 -8 186 -18 256 -22 l128
-6 26 26 c14 14 26 35 26 45 0 11 -44 82 -99 158 l-99 139 24 28 c13 15 29 45
35 66 9 31 8 43 -6 71 -17 32 -17 32 14 61 20 18 31 38 31 54 0 61 70 128 158
150 43 11 47 11 50 -6 5 -29 -25 -122 -49 -153 -11 -14 -33 -32 -47 -40 -30
-15 -92 -28 -92 -20 0 9 84 118 109 141 33 32 6 30 -41 -2 -21 -14 -49 -46
-64 -71 -23 -39 -25 -49 -15 -66 10 -16 10 -23 -2 -36 -14 -17 -57 -175 -57
-212 0 -54 38 5 60 92 7 26 10 62 8 79 l-5 31 41 -5 c26 -4 35 -2 25 4 -10 6
-6 9 15 9 22 0 41 12 75 48 49 50 77 117 88 211 5 43 3 50 -13 53 -34 7 -108
-11 -166 -41 l-56 -29 -7 57 c-16 127 -77 287 -160 417 -66 103 -232 274 -267
274 -5 0 -11 -7 -14 -15 -4 -10 19 -39 69 -85 74 -70 234 -266 224 -276 -3 -3
-20 5 -37 18 -43 31 -126 32 -167 2 -39 -29 -58 -71 -47 -102 13 -36 39 -43
30 -8 -3 14 -2 36 5 47 10 19 12 18 31 -20 27 -55 62 -78 138 -90 83 -14 104
-29 130 -98 26 -67 40 -180 22 -169 -7 4 -12 14 -12 22 0 19 -88 107 -127 128
-26 13 -33 13 -49 1 -16 -12 -19 -27 -19 -112 1 -110 13 -143 67 -188 18 -15
27 -24 21 -20 -7 3 -13 1 -13 -4 0 -6 2 -11 4 -11 2 0 21 -7 42 -15 35 -14 37
-14 20 0 -11 8 -24 15 -30 15 -5 0 -7 2 -4 5 9 9 56 -16 63 -33 5 -13 -38
-122 -49 -122 -6 0 -135 187 -148 216 -9 19 -19 24 -47 24 -25 0 -44 8 -66 29
-60 57 -320 102 -462 81 -85 -13 -135 -29 -210 -67 l-52 -26 -27 22 c-15 11
-33 21 -40 21 -18 0 -18 12 3 56 14 28 31 42 79 64 130 59 245 148 291 228 21
36 24 48 15 62 -9 15 -7 21 16 36 92 60 217 212 247 299 9 27 20 54 25 60 17
20 119 282 140 358 22 82 17 117 -18 117 -9 0 -26 2 -37 5 -11 2 -47 -2 -80
-10z m95 -52 c0 -25 -63 -215 -98 -297 -39 -90 -71 -130 -138 -167 -30 -17
-54 -35 -54 -41 0 -6 21 -8 50 -6 28 1 50 1 50 -1 0 -2 -23 -34 -50 -71 -63
-85 -107 -125 -215 -195 -47 -30 -85 -60 -85 -66 0 -8 15 -10 50 -6 28 3 50 3
50 -1 0 -20 -125 -126 -200 -170 -47 -28 -86 -49 -88 -48 -4 4 118 276 173
386 86 173 181 304 338 468 38 40 67 75 64 78 -13 13 -121 -73 -199 -159 -196
-215 -305 -369 -419 -590 -78 -153 -84 -152 -84 8 1 94 17 185 33 185 4 0 13
-14 19 -31 20 -53 37 -30 44 57 8 101 21 145 63 219 l34 60 12 -47 c13 -51 36
-81 44 -57 3 8 12 50 20 94 11 58 25 93 51 130 36 52 92 115 102 115 3 0 3
-18 -1 -39 -10 -63 10 -57 43 13 25 50 41 70 79 95 75 48 215 96 290 100 15 1
22 -5 22 -16z m-528 -575 c-10 -18 -37 -62 -60 -99 -51 -83 -122 -224 -166
-331 -65 -155 -125 -283 -136 -286 -18 -6 -11 27 16 81 15 29 49 104 76 167
27 63 72 158 100 210 53 101 173 290 184 290 3 0 -3 -15 -14 -32z m746 -228
c17 -13 29 -26 27 -30 -3 -4 2 -13 10 -20 8 -7 15 -9 15 -4 0 5 5 2 10 -6 8
-13 10 -13 10 1 0 9 -9 28 -20 41 -18 23 -18 38 1 38 4 0 13 -17 20 -37 6 -21
19 -50 27 -65 20 -34 11 -44 -20 -25 -12 8 -50 21 -83 27 -48 10 -68 20 -100
52 -36 37 -38 41 -22 53 23 17 85 5 125 -25z m-1818 -343 c-1 -105 -57 -187
-128 -187 -21 0 -22 3 -16 43 3 23 11 58 16 77 12 37 105 143 119 134 5 -3 9
-33 9 -67z m1857 24 c49 -46 81 -105 89 -165 8 -55 -4 -62 -60 -37 -50 22 -74
52 -87 112 -10 41 -3 129 10 129 3 0 25 -18 48 -39z m-2170 -17 c24 -9 59 -34
82 -59 34 -37 41 -52 41 -85 0 -25 5 -40 13 -40 26 0 36 -34 18 -68 l-17 -33
-23 32 c-20 28 -21 33 -8 46 13 13 12 20 -10 59 -32 57 -123 136 -123 107 0
-4 15 -23 33 -43 18 -19 45 -54 60 -77 l27 -43 -32 0 c-73 0 -136 77 -154 188
l-7 43 29 -6 c16 -4 48 -13 71 -21z m968 -84 c4 -6 1 -18 -6 -26 -7 -8 -14
-30 -15 -47 -1 -18 -8 -51 -15 -74 -10 -34 -10 -44 0 -57 20 -24 31 -20 78 29
l43 45 41 -20 c38 -20 40 -20 37 -3 -2 10 -17 21 -38 27 -19 5 -37 11 -39 12
-2 2 31 63 45 83 6 7 75 -41 84 -59 12 -22 14 -360 2 -360 -4 0 -16 9 -25 21
-10 11 -46 33 -80 49 -182 81 -347 77 -684 -18 -40 -11 -77 -23 -83 -27 -24
-15 -6 22 49 103 32 48 82 128 112 177 29 50 54 91 55 93 4 6 117 34 189 47
86 16 241 19 250 5z m815 -20 c51 -11 97 -23 102 -26 4 -3 20 -29 35 -57 32
-64 135 -229 176 -280 16 -21 28 -40 25 -42 -2 -2 -53 11 -113 30 -258 81
-441 91 -615 33 -69 -22 -101 -39 -137 -72 l-23 -19 0 186 0 187 53 27 c91 46
178 64 298 58 59 -2 148 -14 199 -25z m-1330 -89 c0 -17 -207 -319 -275 -400
-36 -43 -65 -84 -65 -90 0 -17 62 -14 305 15 121 14 299 28 396 31 164 5 178
4 220 -15 24 -12 56 -31 72 -44 20 -16 44 -23 90 -26 67 -4 106 10 170 61 28
21 36 22 220 21 129 -1 247 -9 357 -23 184 -24 360 -37 360 -28 0 3 -19 33
-42 65 -24 33 -75 104 -114 158 -40 55 -97 138 -128 187 -46 71 -53 87 -38 87
12 0 31 -19 49 -47 41 -65 271 -402 294 -432 39 -50 31 -53 -108 -46 -71 4
-175 14 -233 22 -120 17 -149 19 -395 29 l-180 7 -43 -36 c-50 -42 -85 -51
-181 -45 -61 3 -74 8 -117 41 l-49 38 -185 -2 c-102 -1 -194 -6 -205 -10 -19
-8 -275 -33 -456 -46 -123 -8 -124 -1 -19 137 31 41 103 145 160 230 57 85
109 158 114 162 15 11 26 10 26 -1z m553 1 c3 -4 -6 -20 -19 -35 -26 -30 -31
-23 -12 18 11 25 23 32 31 17z m-845 -155 c10 -23 26 -50 35 -59 16 -16 16
-19 -6 -44 l-24 -27 -12 64 c-7 35 -15 74 -18 87 -9 36 5 25 25 -21z m833
-130 c47 -16 116 -48 157 -75 l23 -15 -28 -17 c-15 -9 -34 -24 -41 -32 -11
-14 -17 -13 -55 6 -38 19 -58 21 -207 20 -106 0 -228 -8 -340 -22 -240 -30
-320 -39 -320 -35 0 2 17 21 39 43 26 27 54 43 92 53 240 66 291 79 374 91 59
9 261 -3 306 -17z m839 -2 c41 -9 132 -34 201 -56 110 -34 131 -44 159 -75 17
-20 30 -37 28 -39 -2 -2 -104 10 -228 27 -292 40 -561 45 -625 13 l-41 -20
-33 33 c-27 27 -31 36 -20 44 38 26 144 70 200 83 80 18 255 14 359 -10z
m-572 -151 c26 -18 29 -39 6 -48 -25 -10 -90 -7 -121 5 l-28 11 28 24 c33 28
82 32 115 8z"/>
<path d="M1995 1870 c-33 -15 -53 -28 -45 -29 8 0 40 13 70 29 71 37 53 38
-25 0z"/>
<path d="M1969 1683 c-83 -84 -191 -214 -185 -221 5 -4 26 18 131 134 39 43
85 92 104 110 18 17 32 37 30 43 -2 6 -38 -24 -80 -66z"/>
<path d="M1500 1421 c-13 -25 -13 -42 1 -18 5 9 19 17 30 17 11 0 17 5 14 10
-10 16 -34 11 -45 -9z"/>
<path d="M1377 1176 c-3 -7 -8 -35 -11 -62 -5 -47 -5 -47 4 -11 6 21 14 47 20
57 6 11 6 21 1 24 -5 3 -11 0 -14 -8z"/>
<path d="M492 713 c-22 -40 -33 -75 -22 -68 15 10 42 65 37 78 -2 7 -9 3 -15
-10z"/>
<path d="M2465 731 c-3 -5 8 -31 25 -57 25 -41 30 -44 30 -23 0 22 -33 89 -44
89 -3 0 -7 -4 -11 -9z"/>
<path d="M974 630 c-85 -17 -124 -31 -124 -44 0 -10 16 -9 78 6 42 10 116 20
164 21 53 1 87 6 85 12 -4 13 -148 16 -203 5z"/>
<path d="M975 513 c-205 -47 -243 -59 -228 -74 8 -8 28 -6 70 6 108 32 128 36
216 43 48 4 88 12 90 17 2 10 -112 17 -148 8z"/>
<path d="M1235 501 c-28 -6 -29 -7 -10 -18 21 -11 134 -43 154 -43 21 0 11 18
-27 44 -38 26 -61 29 -117 17z"/>
<path d="M1750 640 c-46 -8 -143 -43 -170 -60 -8 -5 -11 -12 -8 -16 4 -3 42 7
85 22 69 26 91 29 193 29 75 0 142 -7 194 -19 51 -12 82 -14 88 -8 14 14 -148
50 -252 56 -47 3 -105 1 -130 -4z"/>
<path d="M1751 514 c-83 -17 -151 -47 -151 -69 0 -11 8 -10 43 5 84 37 175 52
270 45 77 -6 247 -40 300 -60 11 -5 17 -2 17 7 0 19 -109 51 -240 73 -113 18
-142 18 -239 -1z"/>
<path d="M894 316 c-57 -11 -244 -64 -289 -82 -32 -13 92 9 150 26 108 33 169
41 315 43 138 2 168 -2 255 -27 44 -13 48 -13 30 0 -62 46 -312 68 -461 40z"/>
<path d="M1770 323 c-38 -6 -144 -44 -155 -56 -7 -7 -4 -8 10 -2 69 26 161 39
290 39 125 0 155 -4 278 -33 76 -18 140 -31 143 -29 6 7 -130 46 -238 69 -86
17 -255 24 -328 12z"/>
<path d="M2346 225 c-3 -9 0 -15 8 -15 7 0 29 -3 47 -6 41 -8 36 0 -13 20 -32
14 -37 14 -42 1z"/>
<path d="M1315 1620 c-8 -12 3 -50 14 -50 5 0 14 7 21 15 10 12 10 18 0 30
-14 17 -26 19 -35 5z"/>
<path d="M1188 1492 c-7 -10 -20 -23 -29 -28 -13 -8 -11 -14 18 -42 18 -18 33
-28 33 -22 0 6 10 21 23 34 l23 22 -28 27 c-25 26 -27 26 -40 9z"/>
<path d="M1050 1289 c0 -35 -36 -82 -77 -100 -48 -20 -56 -39 -17 -39 41 0 64
-18 86 -67 22 -50 24 -49 53 10 15 30 29 44 55 52 44 15 45 36 1 47 -27 8 -37
18 -54 59 -19 44 -47 67 -47 38z m40 -133 c-20 -20 -20 -20 -40 0 -19 18 -19
21 -4 43 l16 22 24 -22 24 -23 -20 -20z"/>
<path d="M1956 1097 c-9 -39 -43 -74 -77 -81 -36 -7 -32 -16 14 -31 24 -7 38
-22 53 -55 l22 -44 18 39 c13 28 31 46 59 60 l40 19 -37 14 c-34 13 -42 24
-62 85 -8 24 -23 21 -30 -6z m37 -93 c-5 -14 -34 -19 -46 -7 -4 3 0 15 9 25
19 20 47 7 37 -18z"/>
<path d="M1111 937 c-8 -10 -7 -19 4 -33 13 -18 15 -18 31 -2 14 14 15 20 4
32 -15 19 -24 20 -39 3z"/>
<path d="M933 914 c-8 -21 13 -42 28 -27 13 13 5 43 -11 43 -6 0 -13 -7 -17
-16z"/>
<path d="M794 907 c-3 -9 0 -25 6 -37 9 -17 14 -19 26 -9 8 7 14 22 12 33 -4
25 -36 34 -44 13z"/>
<path d="M1823 913 c-17 -6 -16 -28 1 -42 11 -10 16 -8 21 9 8 24 -3 40 -22
33z"/>
<path d="M2147 913 c-22 -21 7 -71 30 -52 18 16 16 46 -3 53 -19 7 -19 7 -27
-1z"/>
<path d="M220 586 c18 -23 71 -46 102 -45 15 1 9 4 -16 10 -21 5 -52 19 -70
31 -25 18 -28 19 -16 4z"/>
</g>
</svg>
